<?xml version="1.0" standalone="no"?>
<!DOCTYPE svg PUBLIC "-//W3C//DTD SVG 20010904//EN"
 "http://www.w3.org/TR/2001/REC-SVG-20010904/DTD/svg10.dtd">
<svg version="1.0" xmlns="http://www.w3.org/2000/svg"
 width="900.000000pt" height="342.000000pt" viewBox="0 0 900.000000 342.000000"
 preserveAspectRatio="xMidYMid meet">
<metadata>
Created by potrace 1.10, written by Peter Selinger 2001-2011
</metadata>
<g transform="translate(0.000000,342.000000) scale(0.100000,-0.100000)"
fill="#fbe924" stroke="none">
<path d="M5039 3222 c-1 -4 -3 -50 -5 -102 -3 -111 -5 -125 -24 -169 -10 -26
-11 -40 -2 -64 12 -32 0 -108 -21 -135 -6 -7 -11 -55 -12 -106 -1 -69 -5 -98
-18 -116 -25 -35 -22 -44 27 -95 57 -58 86 -60 114 -7 15 29 17 43 9 57 -8 15
-5 23 18 40 19 16 25 28 21 42 -4 11 0 33 9 49 8 16 15 39 15 52 0 12 7 25 15
28 8 4 15 18 15 34 0 16 7 35 15 44 8 8 15 30 15 48 0 19 7 43 15 54 8 10 15
26 15 35 0 17 26 33 40 24 4 -3 29 -1 56 4 32 6 53 5 65 -2 14 -9 28 -6 66 13
l48 25 432 0 431 0 25 -23 c19 -18 29 -21 44 -14 18 10 116 -4 156 -22 10 -5
23 -4 30 3 10 7 17 7 25 -1 16 -16 62 -1 62 20 0 25 -76 62 -164 78 -153 30
-254 35 -631 35 -395 0 -571 -11 -612 -37 -12 -8 -29 -14 -38 -14 -8 0 -15 -4
-15 -10 0 -5 -12 -13 -27 -17 -48 -11 -82 -56 -110 -143 -27 -85 -52 -107 -54
-47 -3 63 3 132 12 143 5 6 8 28 8 50 0 21 2 62 6 91 11 76 30 86 137 73 214
-28 390 -31 1618 -29 575 0 571 0 587 -13 19 -16 16 -43 -8 -64 -12 -10 -28
-33 -35 -51 -8 -18 -49 -77 -91 -133 -43 -56 -87 -116 -98 -134 -47 -77 -75
-114 -103 -138 -17 -14 -39 -43 -51 -66 -11 -22 -25 -43 -31 -47 -5 -3 -40
-49 -77 -101 -100 -140 -108 -151 -126 -169 -10 -9 -17 -20 -17 -25 0 -5 -17
-29 -37 -54 -21 -24 -50 -64 -65 -88 -24 -39 -45 -66 -153 -195 -19 -23 -35
-46 -35 -52 0 -6 -15 -28 -34 -48 -18 -21 -45 -57 -60 -81 -14 -23 -30 -42
-35 -42 -4 0 -13 -10 -20 -22 -6 -13 -25 -41 -42 -63 -45 -60 -102 -144 -118
-174 -7 -14 -30 -44 -51 -66 -21 -22 -46 -54 -57 -71 -10 -17 -31 -46 -46 -65
-16 -19 -51 -68 -78 -109 -52 -79 -74 -110 -138 -200 -22 -30 -52 -76 -66
-102 -14 -27 -29 -48 -34 -48 -6 0 -13 -9 -16 -21 -11 -32 -68 -122 -87 -137
-20 -14 -26 -92 -8 -92 6 0 10 -8 10 -19 0 -10 7 -25 17 -32 15 -13 16 -11 9
16 -4 16 -13 33 -19 37 -14 9 -3 21 22 23 24 1 66 51 75 87 3 15 15 32 26 38
11 6 20 20 20 32 0 11 14 37 31 57 44 53 149 200 149 210 0 4 9 16 20 26 11
10 20 22 20 27 0 12 50 87 83 122 15 17 27 35 27 41 0 6 14 24 30 40 17 16 30
34 30 41 0 6 16 28 35 49 19 21 41 53 50 72 9 18 29 43 46 55 16 12 29 30 29
40 0 10 4 18 10 18 5 0 16 13 24 28 8 16 28 43 45 61 17 18 31 40 31 48 0 8
14 28 30 45 17 16 37 43 46 60 8 16 22 32 30 35 8 3 26 26 41 52 15 25 44 65
65 88 21 24 38 49 38 58 0 8 18 33 40 55 22 22 40 47 40 55 0 8 9 19 20 25 11
6 20 17 20 25 0 7 11 22 25 33 14 11 25 25 25 31 0 7 15 26 33 43 17 18 39 49
49 69 9 20 30 47 47 60 17 12 31 31 31 41 0 10 4 18 9 18 5 0 12 8 15 18 3 9
20 33 37 52 18 19 38 48 45 65 7 16 31 48 53 70 23 21 41 45 41 52 0 7 9 17
19 23 11 5 32 35 46 65 15 30 33 55 40 55 8 0 17 9 20 20 3 11 11 20 16 20 5
0 9 7 9 15 0 17 53 97 112 168 63 76 74 160 27 203 -20 18 -56 19 -1058 19
-967 0 -1038 1 -1066 17 -33 20 -66 23 -81 8 -5 -5 -24 -6 -46 -1 -47 11 -238
13 -239 3z"/>
<path d="M261 3177 c-25 -15 -31 -26 -31 -55 0 -56 11 -65 78 -67 38 -1 70 -8
87 -19 23 -15 31 -16 50 -6 20 11 28 9 60 -16 31 -23 40 -26 56 -16 16 10 25
9 51 -10 29 -21 47 -39 136 -135 17 -19 32 -41 32 -49 0 -8 7 -17 15 -20 13
-5 15 -46 15 -298 -1 -160 -1 -308 -1 -330 0 -21 -6 -57 -14 -80 -8 -23 -14
-55 -14 -71 0 -17 -1 -55 -2 -85 -2 -30 -2 -77 -2 -105 1 -27 2 -69 3 -93 0
-23 -5 -52 -11 -65 -7 -12 -13 -44 -14 -72 -1 -27 -5 -78 -10 -112 -5 -42 -4
-67 3 -76 12 -15 -2 -149 -19 -180 -19 -35 -23 -111 -6 -125 13 -11 13 -19 1
-65 -8 -29 -14 -66 -14 -84 0 -17 -4 -34 -9 -38 -6 -3 -13 -26 -17 -52 -5 -38
-4 -49 10 -59 14 -10 15 -17 7 -33 -6 -11 -11 -37 -11 -58 0 -21 -7 -51 -16
-68 -12 -22 -17 -58 -18 -129 -1 -70 -5 -101 -13 -103 -16 -6 -17 -50 -1 -55
8 -3 8 -12 -3 -36 -12 -27 -19 -32 -47 -32 -18 0 -35 -6 -37 -13 -3 -7 -29
-13 -63 -15 -33 -2 -64 -10 -74 -18 -11 -11 -33 -15 -66 -13 -28 2 -56 -2 -64
-8 -7 -6 -22 -12 -33 -15 -16 -2 -21 -12 -23 -51 -3 -47 -2 -48 35 -63 27 -12
53 -14 93 -10 30 4 233 6 450 5 217 -1 419 -2 449 -2 48 0 56 3 83 33 41 47
36 84 -12 88 -19 2 -41 9 -49 15 -8 7 -36 11 -67 9 -42 -3 -54 0 -62 14 -8 15
-21 18 -67 16 -44 -2 -60 1 -70 14 -29 40 -60 -12 -33 -55 6 -10 8 -26 5 -35
-6 -14 -28 -16 -174 -15 -92 1 -179 4 -193 8 -42 12 -31 42 25 71 58 29 64 36
58 60 -3 10 3 33 13 51 10 19 19 59 20 89 3 71 9 114 17 126 8 14 26 195 33
324 2 58 13 175 24 260 27 219 39 370 46 560 3 91 12 189 20 219 10 40 11 58
3 67 -6 8 -8 21 -3 31 10 25 11 36 21 343 5 151 7 302 3 335 -6 70 -40 132
-112 208 -26 28 -50 57 -53 66 -7 22 -66 60 -116 75 -24 7 -45 18 -47 24 -9
27 43 33 301 33 293 -1 302 -3 320 -71 5 -19 17 -46 27 -60 10 -15 22 -39 26
-56 4 -16 14 -40 23 -54 9 -14 23 -38 30 -55 18 -41 29 -62 79 -143 23 -39 42
-75 42 -80 0 -9 72 -163 89 -192 5 -8 19 -33 30 -55 11 -22 37 -69 56 -105 20
-36 60 -112 91 -170 30 -58 64 -114 75 -125 10 -12 21 -35 25 -52 3 -17 17
-42 30 -56 28 -30 94 -150 94 -170 0 -8 6 -20 14 -26 8 -7 18 -27 21 -44 4
-18 18 -46 31 -64 13 -17 24 -37 24 -44 0 -6 12 -30 26 -53 24 -38 137 -234
173 -301 9 -17 29 -47 44 -66 15 -20 27 -44 27 -53 0 -9 11 -28 24 -41 14 -14
33 -38 42 -55 10 -16 22 -30 26 -30 4 0 14 -13 23 -30 9 -17 24 -30 35 -30 16
0 18 5 13 37 -3 21 -14 49 -25 62 -10 13 -18 32 -18 42 0 11 -9 27 -20 36 -11
10 -20 24 -20 31 0 8 -13 31 -28 51 -16 20 -39 57 -51 84 -13 26 -30 47 -38
47 -11 0 -14 7 -9 25 4 14 2 25 -4 25 -5 0 -10 7 -10 15 0 8 -9 23 -20 32 -11
10 -20 23 -20 29 0 6 -7 17 -15 24 -8 7 -15 23 -15 35 0 13 -7 25 -15 29 -8 3
-15 14 -15 24 0 11 -7 25 -15 32 -8 7 -15 20 -15 30 0 10 -7 20 -15 24 -8 3
-15 14 -15 24 0 11 -7 25 -15 32 -8 7 -15 16 -15 21 0 5 -12 28 -27 52 -15 23
-26 50 -25 59 2 9 -6 23 -17 30 -12 7 -21 18 -21 25 0 17 -33 77 -47 86 -7 4
-13 18 -13 31 0 13 -7 29 -15 36 -8 7 -15 19 -15 26 0 8 -4 14 -9 14 -12 0
-41 57 -41 81 0 10 -9 23 -20 29 -11 6 -20 21 -20 34 0 13 -7 26 -15 30 -8 3
-15 14 -15 25 0 11 -9 25 -20 31 -11 6 -17 16 -14 25 3 8 -7 34 -23 57 -15 24
-34 57 -42 73 -7 17 -17 37 -22 45 -5 8 -14 27 -20 42 -6 14 -17 29 -25 32 -8
3 -14 16 -14 30 0 13 -7 26 -15 30 -8 3 -15 16 -15 30 0 13 -7 26 -15 30 -8 3
-15 16 -15 30 0 13 -6 26 -14 29 -8 3 -22 27 -31 54 -10 26 -24 53 -32 59 -7
6 -13 20 -13 31 0 11 -7 26 -15 33 -8 7 -15 20 -15 30 0 10 -7 23 -15 30 -8 7
-15 23 -15 36 0 12 -5 26 -11 30 -14 8 -49 90 -49 115 0 10 -4 19 -10 19 -5 0
-10 13 -10 29 0 20 -8 34 -27 47 -26 16 -63 18 -480 19 -431 2 -453 1 -482
-18z"/>
<path d="M3680 3169 c0 -16 -4 -29 -9 -29 -5 0 -12 -16 -16 -36 -3 -20 -13
-43 -21 -51 -8 -9 -12 -24 -8 -37 4 -16 0 -25 -10 -29 -9 -4 -16 -17 -16 -31
0 -13 -7 -26 -15 -30 -8 -3 -15 -16 -15 -29 0 -14 -7 -30 -15 -37 -8 -7 -15
-20 -15 -29 0 -10 -7 -26 -15 -37 -8 -10 -15 -26 -15 -35 0 -9 -9 -24 -20 -34
-11 -10 -20 -24 -20 -32 0 -8 -7 -21 -15 -30 -9 -8 -13 -23 -10 -33 4 -12 -1
-19 -13 -22 -13 -4 -21 -18 -26 -48 -4 -24 -15 -55 -25 -69 -10 -14 -26 -43
-34 -64 -9 -20 -23 -40 -32 -43 -8 -3 -15 -14 -15 -24 0 -10 -6 -25 -13 -32
-17 -16 -47 -77 -47 -93 0 -7 -7 -18 -15 -25 -8 -7 -15 -21 -15 -31 0 -10 -9
-23 -20 -29 -12 -6 -19 -19 -18 -33 2 -21 -78 -163 -109 -195 -7 -7 -13 -22
-13 -32 0 -10 -4 -22 -10 -25 -5 -3 -10 -14 -10 -25 0 -10 -7 -20 -15 -24 -8
-3 -15 -17 -15 -31 0 -16 -6 -25 -15 -25 -9 0 -15 -9 -15 -25 0 -14 -8 -29
-20 -35 -12 -6 -19 -20 -18 -33 1 -12 -17 -49 -39 -82 -22 -33 -44 -70 -47
-82 -4 -13 -12 -23 -17 -23 -5 0 -9 -11 -9 -25 0 -14 -7 -28 -15 -31 -8 -4
-15 -16 -15 -29 0 -13 -7 -25 -15 -29 -8 -3 -15 -17 -15 -31 0 -16 -6 -25 -15
-25 -8 0 -15 -8 -15 -18 0 -11 -11 -39 -25 -63 -13 -24 -29 -53 -35 -64 -6
-11 -19 -33 -30 -50 -11 -16 -23 -37 -26 -45 -3 -8 -8 -19 -10 -25 -2 -5 -13
-23 -24 -40 -20 -30 -24 -38 -42 -87 -14 -37 -3 -78 21 -78 22 0 51 30 51 53
0 9 8 22 18 29 10 7 24 29 32 48 7 19 19 42 25 50 7 8 16 25 20 38 3 12 22 46
41 75 19 28 34 59 34 69 0 9 11 29 25 44 13 14 27 42 31 60 3 19 15 40 25 47
10 7 21 32 25 54 4 29 13 44 29 51 15 7 28 25 34 46 5 20 19 48 30 62 12 15
21 31 21 36 0 5 18 40 39 76 22 37 43 79 46 94 4 15 13 32 21 39 8 6 37 57 64
113 59 119 88 175 101 196 5 8 22 42 39 75 17 33 37 71 45 85 8 14 15 33 15
43 0 10 13 32 30 50 16 18 30 38 30 46 0 8 6 22 13 30 8 9 19 35 26 59 6 23
25 56 41 72 17 17 30 35 30 40 0 11 35 90 91 207 21 44 39 88 39 96 0 8 9 26
20 40 12 15 28 49 36 76 9 32 23 55 37 63 29 15 358 14 387 -2 29 -15 22 -28
-36 -68 -27 -19 -53 -41 -58 -50 -17 -29 -10 -731 8 -932 2 -25 7 -124 11
-220 3 -99 12 -195 20 -220 16 -51 23 -161 30 -438 3 -107 10 -202 15 -212 6
-10 10 -28 10 -40 0 -11 6 -31 14 -43 9 -15 16 -68 20 -162 12 -281 17 -314
42 -345 13 -15 24 -39 24 -52 0 -33 27 -68 66 -84 33 -14 42 -35 26 -61 -11
-17 -686 -13 -703 4 -17 17 3 38 61 68 79 40 73 3 83 520 3 147 1 282 -5 310
-5 28 -9 106 -9 174 0 69 -3 129 -7 135 -4 6 -7 140 -7 298 0 285 0 286 -23
311 -18 20 -23 34 -21 73 1 27 -6 72 -14 99 -12 35 -15 66 -10 104 6 51 5 53
-14 42 -27 -14 -73 -93 -73 -125 0 -14 5 -37 12 -51 10 -22 9 -27 -8 -39 -17
-13 -18 -18 -6 -58 7 -23 19 -72 26 -108 7 -36 16 -72 20 -79 5 -7 1 -20 -9
-31 -14 -15 -16 -30 -12 -65 4 -24 11 -53 16 -62 16 -31 31 -224 19 -246 -12
-23 -3 -159 13 -188 6 -13 6 -25 -3 -38 -10 -16 -10 -29 0 -63 20 -66 33 -217
22 -238 -6 -11 -10 -129 -10 -280 0 -222 2 -261 15 -266 20 -8 19 -63 -1 -93
-12 -16 -19 -20 -27 -12 -16 16 -54 14 -60 -3 -4 -11 -24 -14 -79 -12 -56 2
-78 -2 -93 -15 -25 -20 -108 -32 -122 -18 -8 8 -21 6 -44 -5 -19 -8 -47 -16
-64 -18 -25 -3 -30 -8 -33 -33 -5 -58 74 -108 143 -91 19 5 943 6 1306 2 72
-1 109 28 109 87 0 36 -1 37 -39 37 -22 0 -44 6 -51 15 -8 10 -17 12 -29 6
-22 -12 -71 -2 -99 20 -18 14 -34 17 -72 12 -41 -5 -51 -3 -56 11 -5 12 -16
16 -37 14 -26 -3 -32 1 -38 24 -4 16 -6 52 -4 80 2 40 -2 58 -15 73 -19 22
-34 151 -19 161 12 7 11 27 -3 61 -19 45 -36 166 -27 185 12 23 11 61 -3 95
-6 15 -19 64 -28 108 -14 67 -15 82 -3 93 16 16 16 53 2 107 -6 22 -12 58 -14
80 -1 22 -8 67 -14 99 -8 44 -8 63 0 73 8 9 9 34 4 81 -4 37 -8 92 -9 123 -1
31 -7 63 -14 71 -9 12 -12 51 -11 140 3 196 -2 310 -15 358 -10 34 -12 120 -9
341 4 255 2 297 -11 308 -19 16 -4 53 29 71 20 11 26 10 40 -4 20 -19 43 -21
64 -3 9 8 35 19 58 26 34 9 47 9 63 -1 17 -11 25 -10 50 4 17 10 37 15 45 12
9 -4 21 -2 28 4 6 5 46 9 87 8 69 -2 77 0 98 22 33 37 30 48 -25 94 l-32 26
-471 0 -470 0 0 -29z"/>
<path d="M6765 2863 c0 -20 -7 -31 -22 -38 -13 -5 -23 -13 -23 -17 0 -4 -13
-23 -30 -41 -16 -19 -30 -44 -30 -55 0 -11 -13 -31 -29 -44 -16 -14 -32 -34
-35 -46 -4 -12 -11 -22 -15 -22 -4 0 -18 -20 -30 -45 -12 -25 -26 -45 -31 -45
-4 0 -18 -19 -30 -42 -12 -24 -41 -68 -63 -98 -46 -60 -60 -82 -79 -121 -7
-14 -28 -38 -45 -53 -18 -15 -33 -35 -33 -44 0 -10 -9 -23 -20 -30 -11 -7 -20
-19 -20 -26 0 -8 -11 -23 -25 -34 -14 -11 -25 -26 -25 -32 0 -7 -16 -28 -35
-47 -19 -19 -35 -41 -35 -49 0 -8 -17 -33 -38 -57 -21 -23 -51 -62 -67 -87
-17 -25 -45 -60 -62 -78 -18 -18 -33 -39 -33 -48 0 -8 -7 -17 -16 -21 -8 -3
-22 -23 -30 -43 -9 -21 -30 -52 -47 -68 -37 -36 -40 -39 -91 -114 -22 -32 -43
-58 -48 -58 -4 0 -8 -9 -8 -20 0 -10 -9 -24 -20 -30 -11 -6 -20 -17 -20 -24 0
-7 -11 -23 -25 -36 -14 -13 -25 -28 -25 -35 0 -6 -8 -18 -17 -27 -25 -24 -43
-46 -43 -54 0 -4 -7 -14 -15 -23 -45 -48 -115 -146 -115 -160 0 -5 -11 -18
-25 -29 -14 -11 -25 -23 -25 -26 0 -4 -22 -36 -50 -72 -27 -36 -54 -74 -60
-84 -6 -11 -22 -32 -35 -46 -14 -15 -31 -38 -38 -50 -10 -18 -62 -86 -108
-142 -5 -7 -31 -43 -56 -80 -25 -37 -52 -74 -60 -82 -7 -8 -29 -36 -48 -62
-29 -39 -35 -55 -35 -97 0 -43 4 -54 33 -81 30 -29 35 -31 87 -25 46 4 2248 6
2405 1 l50 -1 7 50 c3 28 11 84 18 125 6 41 13 86 15 100 19 130 25 171 33
210 6 25 13 80 17 122 4 43 11 80 16 84 12 7 11 51 -2 77 -23 45 -51 67 -70
57 -9 -6 -24 -8 -31 -5 -16 6 -48 -47 -48 -80 0 -12 -7 -28 -15 -35 -8 -7 -15
-25 -15 -41 0 -19 -5 -29 -15 -29 -8 0 -17 -12 -20 -27 -4 -16 -10 -36 -16
-45 -5 -10 -9 -31 -9 -47 0 -16 -6 -31 -15 -35 -8 -3 -15 -16 -15 -29 0 -13
-7 -32 -15 -43 -8 -10 -15 -31 -15 -45 0 -19 -6 -28 -21 -32 -29 -8 -19 -30
19 -41 45 -13 77 11 86 63 3 22 17 57 31 77 14 20 25 48 25 61 0 45 39 100 53
76 5 -9 -6 -95 -23 -178 -7 -33 -12 -75 -11 -93 0 -18 -6 -46 -14 -62 -10 -19
-13 -43 -9 -73 6 -41 4 -46 -24 -65 -26 -19 -34 -20 -62 -11 -23 9 -38 9 -57
0 -17 -8 -29 -8 -37 -1 -8 6 -51 8 -107 6 -52 -3 -314 -4 -584 -4 -663 1 -794
1 -1125 1 -351 -1 -402 0 -417 10 -21 13 -15 37 17 74 17 18 30 38 30 44 0 6
15 28 32 50 28 35 37 40 65 37 40 -5 52 19 28 56 -9 14 -14 30 -10 36 8 13 48
13 62 -1 8 -8 9 2 6 35 -5 41 -3 46 19 57 17 7 30 25 37 50 14 46 31 51 31 9
0 -20 5 -30 15 -30 22 0 23 37 3 78 -9 17 -9 25 0 34 9 9 12 8 12 -4 0 -24 16
-31 40 -18 20 11 29 60 10 60 -5 0 -10 9 -10 20 0 11 5 20 10 20 6 0 10 -7 10
-15 0 -19 34 -20 49 -2 8 10 7 22 -1 44 -6 16 -8 37 -5 47 8 20 43 21 51 1 3
-8 10 -15 16 -15 18 0 23 30 10 55 -20 36 -6 59 31 51 l31 -6 -7 40 c-6 35 -3
43 23 67 16 16 33 38 36 50 4 11 13 24 21 27 8 3 22 20 31 38 9 18 30 48 45
66 16 18 29 39 29 48 0 8 6 17 14 20 8 3 18 19 21 35 5 22 12 29 29 29 19 0
22 -4 18 -25 -3 -18 0 -25 12 -25 24 0 30 24 13 57 -8 15 -12 34 -10 41 6 15
33 16 33 0 0 -6 9 -3 21 8 14 13 19 28 17 51 -2 26 4 39 30 62 17 17 32 37 32
45 0 9 10 22 23 31 13 8 28 30 35 49 15 41 38 53 52 26 14 -26 30 -26 30 0 0
11 -7 20 -15 20 -8 0 -15 5 -15 10 0 20 29 67 44 73 9 4 22 22 30 42 8 19 22
35 30 35 8 0 17 13 21 28 3 15 17 41 30 56 14 16 25 37 25 48 0 10 7 18 15 18
8 0 15 -9 15 -19 0 -28 19 -36 38 -17 16 16 16 18 -1 31 -13 9 -15 15 -7 20 7
4 10 16 7 26 -3 11 -1 19 4 19 5 0 9 -4 9 -10 0 -5 12 -10 26 -10 26 0 27 1
21 50 -5 37 -2 53 9 65 21 21 35 19 41 -5 3 -11 12 -20 20 -20 12 0 12 3 -1
22 -30 43 -18 74 72 178 17 20 32 42 32 48 0 6 13 26 28 44 16 18 47 65 70
103 22 39 50 81 61 94 12 13 21 37 21 52 0 15 6 32 14 36 7 4 25 27 39 50 14
23 31 44 37 48 16 10 13 65 -4 65 -8 0 -21 2 -28 5 -10 4 -14 -3 -13 -22z"/>
<path d="M920 2846 c0 -8 5 -18 10 -21 6 -3 10 3 10 14 0 12 -4 21 -10 21 -5
0 -10 -6 -10 -14z"/>
<path d="M3655 2658 c-9 -24 10 -141 23 -146 13 -4 18 49 5 62 -4 4 -6 24 -4
45 2 38 -14 65 -24 39z"/>
<path d="M6708 2536 c-22 -31 -34 -76 -19 -76 6 0 11 7 11 16 0 8 7 22 15 30
8 9 15 24 15 35 0 24 -1 24 -22 -5z"/>
<path d="M3664 2439 c-3 -6 -1 -16 5 -22 8 -8 11 -5 11 11 0 24 -5 28 -16 11z"/>
<path d="M3744 2427 c-8 -22 3 -37 27 -37 24 0 24 12 -1 35 -17 16 -20 16 -26
2z"/>
<path d="M6620 2425 c0 -8 5 -15 10 -15 6 0 10 7 10 15 0 8 -4 15 -10 15 -5 0
-10 -7 -10 -15z"/>
<path d="M6685 2310 c-3 -5 -3 -15 1 -21 6 -11 23 6 24 24 0 10 -18 9 -25 -3z"/>
<path d="M3477 2289 c-9 -5 -24 -24 -33 -42 -9 -17 -23 -37 -31 -45 -8 -8 -17
-28 -20 -44 -3 -16 -16 -36 -28 -44 -13 -9 -25 -29 -28 -50 -3 -19 -19 -51
-36 -69 -17 -19 -47 -70 -67 -112 -21 -43 -60 -118 -87 -168 -28 -49 -70 -130
-95 -180 -24 -49 -50 -97 -57 -105 -7 -8 -18 -31 -24 -51 -7 -20 -20 -44 -31
-54 -11 -10 -25 -34 -31 -54 -7 -20 -20 -46 -30 -59 -10 -13 -23 -40 -30 -60
-7 -20 -31 -64 -54 -97 -23 -33 -45 -72 -48 -87 -4 -14 -18 -39 -31 -55 -13
-15 -27 -39 -31 -53 -4 -14 -17 -43 -30 -65 -12 -22 -26 -51 -30 -65 -4 -14
-17 -38 -30 -55 -12 -16 -32 -52 -44 -80 -12 -27 -28 -56 -36 -65 -7 -8 -17
-28 -21 -45 -4 -16 -20 -50 -35 -75 -15 -25 -31 -58 -35 -75 -4 -16 -12 -36
-18 -44 -6 -8 -20 -39 -31 -70 -17 -46 -24 -56 -43 -56 -19 0 -28 11 -45 50
-12 28 -38 80 -59 118 -20 37 -42 92 -49 122 -8 36 -20 60 -34 69 -14 9 -25
29 -28 52 -4 20 -20 54 -37 75 -20 26 -30 49 -30 73 0 36 -21 66 -47 66 -12 0
-13 8 -8 40 5 33 4 41 -10 47 -10 3 -26 1 -35 -5 -10 -6 -20 -8 -24 -5 -3 3
-2 42 1 87 3 47 2 77 -3 73 -5 -5 -9 -20 -9 -34 0 -43 -20 -36 -34 11 -7 24
-24 54 -37 67 -14 13 -24 34 -24 49 0 15 -13 44 -30 65 -16 21 -30 48 -30 61
0 13 -16 42 -36 64 -24 27 -34 45 -30 58 4 12 -1 25 -15 38 -12 10 -30 39 -41
64 -11 25 -30 56 -42 70 -13 14 -26 43 -29 64 -4 24 -16 49 -32 63 -14 13 -25
31 -25 39 0 29 -30 74 -45 68 -20 -8 -30 22 -17 52 12 25 7 54 -9 54 -5 0 -9
-7 -9 -15 0 -8 -4 -15 -9 -15 -10 0 -21 24 -21 47 0 8 -13 31 -30 50 -28 31
-35 49 -31 81 1 7 -12 29 -28 50 -17 20 -31 42 -31 50 0 7 -11 24 -25 38 -34
34 -45 57 -45 94 0 39 -23 38 -53 -2 -16 -22 -18 -30 -8 -42 7 -8 10 -20 6
-27 -7 -10 3 -41 26 -79 5 -8 13 -25 19 -37 5 -13 14 -23 20 -23 5 0 10 -8 10
-17 0 -10 7 -27 15 -37 8 -11 15 -27 15 -37 0 -9 7 -19 15 -23 8 -3 15 -14 15
-25 0 -10 7 -21 15 -25 8 -3 15 -17 15 -30 0 -15 8 -30 20 -36 11 -6 20 -15
20 -20 0 -13 51 -124 60 -130 4 -3 10 -17 14 -32 3 -16 13 -28 21 -28 9 0 15
-10 15 -24 0 -14 5 -28 10 -31 6 -3 10 -15 10 -26 0 -10 9 -24 20 -31 11 -7
20 -19 20 -26 0 -7 11 -28 25 -46 14 -18 25 -42 25 -53 0 -11 9 -28 20 -38 11
-10 20 -26 20 -35 0 -10 7 -20 15 -24 8 -3 15 -14 15 -25 0 -11 4 -23 10 -26
5 -3 10 -15 10 -26 0 -10 9 -27 20 -36 11 -10 20 -25 20 -35 0 -10 4 -18 10
-18 5 0 21 -24 34 -54 14 -30 30 -57 35 -61 6 -3 11 -14 11 -25 0 -10 7 -20
15 -24 8 -3 15 -14 15 -25 0 -10 7 -21 15 -25 9 -3 15 -18 15 -36 0 -16 4 -30
10 -30 5 0 21 -24 34 -54 14 -30 30 -57 35 -61 6 -3 11 -13 11 -21 0 -8 12
-33 27 -57 42 -65 63 -106 63 -122 0 -8 4 -15 10 -15 5 0 12 -11 16 -25 3 -13
12 -29 20 -36 8 -6 14 -22 14 -34 0 -13 7 -25 15 -29 8 -3 15 -13 15 -23 0
-10 7 -27 15 -37 8 -11 15 -27 15 -37 0 -9 7 -19 15 -23 8 -3 15 -14 15 -24 0
-11 7 -25 15 -32 8 -7 15 -20 15 -29 0 -9 7 -25 15 -35 8 -11 15 -29 15 -41 0
-33 20 -45 78 -45 61 0 81 15 82 61 0 15 7 29 15 33 8 3 15 16 15 29 0 24 60
151 80 171 5 5 10 16 10 22 0 7 14 33 30 57 17 25 30 51 30 59 0 20 87 193
105 208 8 7 15 20 15 30 0 10 7 20 15 24 8 3 15 17 15 31 0 14 7 28 15 31 8 4
15 15 15 25 0 11 7 22 15 25 8 4 15 16 15 29 0 13 7 25 15 29 8 3 15 17 15 30
0 14 6 29 14 33 7 4 18 24 25 44 6 20 21 45 31 54 11 10 20 27 20 37 0 10 7
21 15 24 8 4 15 16 15 29 0 13 7 25 15 29 8 3 15 14 15 24 0 11 7 25 15 32 8
7 15 21 15 31 0 10 9 23 21 29 13 7 18 17 15 27 -4 9 -1 22 6 30 14 17 25 36
62 108 15 28 30 57 35 65 5 8 12 22 15 30 4 8 15 29 26 45 11 17 25 42 31 58
6 15 15 27 19 27 5 0 12 10 15 23 13 43 39 97 47 97 4 0 8 8 8 18 0 10 9 25
19 34 11 9 23 33 26 52 4 19 16 42 26 52 10 9 19 26 19 36 0 10 7 21 15 24 8
4 15 14 15 23 0 9 9 24 20 34 11 9 20 26 20 36 0 11 5 23 11 27 6 3 8 15 6 26
-3 11 0 21 8 24 8 4 13 22 13 50 -1 47 -3 49 -31 33z"/>
<path d="M6480 2251 c0 -5 7 -11 15 -15 9 -3 15 0 15 9 0 8 -7 15 -15 15 -8 0
-15 -4 -15 -9z"/>
<path d="M991 2218 c-5 -18 -8 -58 -7 -88 3 -34 -1 -58 -8 -62 -6 -4 -12 -37
-13 -75 -1 -37 -6 -115 -12 -173 -6 -58 -17 -237 -26 -399 -8 -161 -18 -297
-21 -302 -3 -5 -7 -62 -10 -126 -3 -65 -9 -145 -14 -178 -4 -33 -5 -75 -3 -93
3 -18 0 -46 -7 -62 -10 -24 -10 -33 0 -45 6 -8 9 -18 7 -23 -3 -4 -1 -43 5
-85 7 -59 7 -81 -2 -92 -10 -11 -8 -20 10 -42 17 -22 20 -35 15 -66 -6 -31 -3
-41 12 -52 10 -8 21 -15 26 -15 4 0 7 99 7 221 0 121 5 251 11 289 9 52 9 73
0 83 -8 11 -7 34 5 98 10 56 13 105 9 150 -5 50 -3 74 8 96 16 30 22 123 18
295 -1 64 3 106 11 120 7 13 13 41 13 63 1 22 5 67 10 99 7 49 5 61 -8 71 -14
10 -14 16 -2 51 8 21 14 57 15 79 0 23 4 45 10 51 5 5 13 32 16 58 6 40 4 51
-11 62 -12 9 -16 20 -12 36 9 33 -6 82 -25 86 -11 2 -20 -8 -27 -30z"/>
<path d="M3841 2165 c0 -44 4 -89 9 -100 6 -13 9 7 9 60 0 44 -4 89 -9 100 -6
13 -9 -7 -9 -60z"/>
<path d="M3770 2031 c0 -12 6 -21 16 -21 9 0 14 7 12 17 -5 25 -28 28 -28 4z"/>
<path d="M1400 1979 c0 -11 5 -17 10 -14 6 3 10 13 10 21 0 8 -4 14 -10 14 -5
0 -10 -9 -10 -21z"/>
<path d="M3841 1910 c0 -47 4 -94 9 -105 15 -36 23 10 17 92 -8 110 -27 119
-26 13z"/>
<path d="M8016 1948 c-28 -10 -75 -54 -76 -71 0 -4 -13 -26 -30 -49 -16 -22
-30 -50 -30 -60 0 -10 -6 -31 -14 -46 -8 -16 -16 -41 -18 -57 -2 -17 -9 -40
-16 -52 -7 -12 -13 -55 -14 -95 0 -44 -7 -82 -15 -95 -12 -17 -12 -38 -4 -110
5 -48 7 -91 5 -95 -9 -13 -41 -9 -54 7 -18 22 -128 85 -147 85 -9 0 -24 6 -32
14 -21 18 -99 27 -108 13 -11 -18 -4 -70 12 -87 8 -9 15 -22 15 -28 0 -6 6
-17 13 -24 7 -7 22 -31 33 -53 11 -22 32 -59 47 -82 15 -24 27 -49 27 -57 0
-8 6 -27 14 -43 25 -49 45 -164 49 -276 2 -63 9 -113 15 -119 7 -7 12 -23 12
-36 0 -21 12 -51 41 -102 5 -8 12 -22 15 -30 28 -75 117 -187 191 -243 60 -45
65 -47 131 -47 50 0 73 4 82 15 7 8 19 15 26 15 8 0 14 4 14 8 0 4 23 25 50
45 28 21 50 44 50 52 0 8 5 15 10 15 6 0 14 8 17 18 4 9 16 31 28 47 34 47 95
174 95 199 0 12 5 27 11 33 6 6 15 69 19 139 9 134 23 218 46 269 27 63 55
121 67 140 92 145 113 196 96 228 -11 18 -82 12 -114 -9 -11 -8 -27 -14 -35
-14 -26 0 -133 -58 -151 -82 -10 -12 -21 -18 -29 -13 -9 5 -10 37 -5 131 6 97
4 128 -6 140 -7 9 -15 46 -17 82 -2 40 -9 73 -18 83 -8 8 -14 26 -14 40 0 13
-14 51 -30 84 -16 33 -30 65 -30 70 0 6 -17 29 -38 51 -53 59 -117 77 -186 52z
m104 -126 c26 -13 39 -29 53 -67 10 -27 25 -63 33 -78 23 -47 42 -147 54 -283
l11 -129 47 -48 47 -47 73 6 74 7 -7 -34 c-4 -19 -15 -45 -25 -59 -15 -23 -27
-58 -74 -221 -9 -31 -16 -80 -16 -110 0 -166 -76 -362 -183 -472 -51 -53 -69
-65 -104 -71 -91 -14 -182 65 -259 224 -55 112 -72 171 -79 261 -8 106 -35
248 -57 291 -10 21 -18 45 -18 54 0 9 -8 31 -19 48 -10 17 -21 43 -25 59 -8
32 4 34 57 12 53 -22 82 -19 101 10 9 14 23 25 30 25 17 0 47 72 52 125 4 52
32 226 46 290 13 62 63 173 90 203 25 26 50 27 98 4z"/>
<path d="M6234 1915 c-3 -14 -4 -28 -1 -31 10 -10 27 7 27 26 0 30 -19 33 -26
5z"/>
<path d="M6200 1830 c0 -11 5 -20 10 -20 6 0 10 9 10 20 0 11 -4 20 -10 20 -5
0 -10 -9 -10 -20z"/>
<path d="M6207 1665 c-4 -8 -2 -17 3 -20 6 -4 10 -4 10 -1 0 2 3 11 6 20 3 9
2 16 -4 16 -5 0 -12 -7 -15 -15z"/>
<path d="M3813 1648 c2 -7 12 -13 22 -13 10 0 20 6 23 13 2 7 -6 12 -23 12
-17 0 -25 -5 -22 -12z"/>
<path d="M6000 1595 c0 -8 5 -15 10 -15 6 0 10 7 10 15 0 8 -4 15 -10 15 -5 0
-10 -7 -10 -15z"/>
<path d="M3907 1533 c-9 -9 -7 -183 2 -207 7 -17 8 -18 14 -3 10 28 20 164 13
191 -6 26 -16 32 -29 19z"/>
<path d="M5930 1516 c0 -20 13 -27 30 -15 13 8 13 10 0 19 -21 14 -30 12 -30
-4z"/>
<path d="M3796 1467 c-8 -29 -8 -116 0 -156 12 -58 24 -20 24 74 0 90 -11 129
-24 82z"/>
<path d="M5757 1293 c-11 -10 -8 -63 3 -63 14 0 31 37 24 54 -7 17 -16 20 -27
9z"/>
<path d="M3866 1271 c-8 -12 3 -41 15 -41 5 0 9 11 9 25 0 25 -14 34 -24 16z"/>
<path d="M1920 1216 c0 -8 5 -18 10 -21 6 -3 10 1 10 9 0 8 -4 18 -10 21 -5 3
-10 -1 -10 -9z"/>
<path d="M3796 1221 c-3 -4 -2 -28 3 -52 l9 -44 1 53 c1 51 -2 61 -13 43z"/>
<path d="M5727 1213 c-11 -10 -8 -43 3 -43 6 0 10 11 10 25 0 26 -2 29 -13 18z"/>
<path d="M5658 1128 c-7 -18 2 -39 13 -32 12 7 12 44 0 44 -5 0 -11 -6 -13
-12z"/>
<path d="M1880 1095 c0 -14 5 -25 10 -25 6 0 10 11 10 25 0 14 -4 25 -10 25
-5 0 -10 -11 -10 -25z"/>
<path d="M5731 1026 c-11 -13 -11 -20 -3 -28 8 -8 13 -7 18 5 10 27 0 41 -15
23z"/>
<path d="M5667 934 c-9 -9 4 -35 14 -28 5 3 9 12 9 20 0 14 -12 19 -23 8z"/>
<path d="M3893 913 c-18 -7 -16 -43 2 -43 18 0 31 28 19 39 -5 5 -15 6 -21 4z"/>
<path d="M5605 849 c-4 -6 -5 -13 -2 -16 7 -7 27 6 27 18 0 12 -17 12 -25 -2z"/>
<path d="M3967 749 c-6 -24 1 -49 14 -49 12 0 12 57 0 64 -5 3 -11 -4 -14 -15z"/>
<path d="M3848 677 c-18 -48 -24 -200 -11 -330 l7 -82 7 70 c4 39 5 129 3 201
-4 111 -2 133 11 138 16 6 21 31 7 40 -4 2 -15 -14 -24 -37z"/>
<path d="M3971 638 l0 -53 15 40 c15 40 13 65 -6 65 -6 0 -10 -23 -9 -52z"/>
<path d="M5236 534 c-9 -22 -8 -24 9 -24 8 0 15 9 15 20 0 24 -15 27 -24 4z"/>
<path d="M3925 520 c-8 -13 4 -32 16 -25 12 8 12 35 0 35 -6 0 -13 -4 -16 -10z"/>
<path d="M8569 446 c-14 -29 -3 -96 14 -96 21 0 47 38 47 68 0 51 -42 70 -61
28z"/>
<path d="M5280 436 c0 -8 5 -18 10 -21 6 -3 10 3 10 14 0 12 -4 21 -10 21 -5
0 -10 -6 -10 -14z"/>
<path d="M5245 380 c-8 -13 4 -32 16 -25 12 8 12 35 0 35 -6 0 -13 -4 -16 -10z"/>
<path d="M5785 367 c-11 -6 -33 -12 -50 -12 -25 0 -31 -5 -33 -26 -4 -37 25
-44 326 -79 182 -21 629 -24 857 -6 295 23 292 22 310 58 12 26 12 32 0 44
-17 17 -32 18 -38 2 -3 -10 -9 -10 -23 -2 -15 9 -24 8 -41 -3 -18 -12 -29 -13
-59 -3 -29 10 -49 10 -91 1 -29 -7 -66 -10 -82 -6 -19 4 -41 0 -60 -9 -45 -24
-592 -24 -612 0 -9 10 -23 14 -43 11 -17 -3 -50 -1 -73 5 -30 7 -52 7 -75 -1
-28 -10 -36 -9 -61 10 -19 14 -32 18 -39 11 -7 -7 -19 -5 -36 4 -33 17 -51 17
-77 1z"/>
<path d="M5185 290 c-7 -12 2 -30 16 -30 12 0 12 27 0 35 -5 3 -12 1 -16 -5z"/>
</g>
</svg>
