<?xml version="1.0" standalone="no"?>
<!DOCTYPE svg PUBLIC "-//W3C//DTD SVG 20010904//EN"
 "http://www.w3.org/TR/2001/REC-SVG-20010904/DTD/svg10.dtd">
<svg version="1.0" xmlns="http://www.w3.org/2000/svg"
 width="804.000000pt" height="273.000000pt" viewBox="0 0 804.000000 273.000000"
 preserveAspectRatio="xMidYMid meet">
<metadata>
Created by potrace 1.10, written by Peter Selinger 2001-2011
</metadata>
<g transform="translate(0.000000,273.000000) scale(0.100000,-0.100000)"
fill="#fbe924" stroke="none">
<path d="M494 2147 c-3 -9 -4 -24 -2 -34 3 -15 16 -19 88 -23 86 -5 97 -9 156
-60 67 -58 69 -65 66 -275 -2 -104 -7 -217 -12 -250 -6 -33 -12 -116 -16 -185
-3 -69 -12 -168 -20 -221 -8 -53 -14 -125 -14 -160 0 -35 -5 -80 -11 -99 -6
-19 -10 -58 -10 -86 1 -38 -5 -59 -20 -78 -18 -23 -28 -26 -79 -26 -79 0 -132
-25 -128 -60 3 -21 9 -25 40 -28 20 -2 51 4 68 13 51 27 351 21 387 -7 6 -5
29 -8 50 -6 32 3 38 7 41 29 4 33 -29 49 -120 56 -73 6 -98 22 -98 64 0 13 0
57 0 97 0 40 5 105 11 145 5 39 15 162 20 272 6 110 13 229 16 264 3 36 -1
108 -8 160 -7 53 -14 123 -16 156 -8 160 -5 147 -58 222 -15 21 12 33 76 33
64 0 89 -18 89 -65 0 -17 10 -40 24 -54 14 -15 48 -71 77 -126 28 -55 58 -109
65 -120 8 -11 14 -29 14 -41 0 -12 7 -28 17 -35 9 -8 27 -38 40 -67 13 -29 34
-65 48 -80 14 -15 25 -39 25 -55 0 -18 10 -38 29 -55 18 -16 32 -42 36 -65 5
-27 14 -41 30 -47 15 -6 25 -20 29 -43 4 -19 13 -40 21 -47 8 -7 15 -18 15
-26 0 -7 13 -29 30 -47 17 -19 30 -42 30 -52 0 -21 85 -103 123 -117 35 -13
36 -45 2 -98 -14 -22 -32 -58 -41 -80 -20 -49 -39 -51 -54 -6 -6 18 -22 43
-35 56 -14 13 -38 53 -55 89 -17 36 -37 73 -44 81 -8 8 -17 31 -21 50 -4 19
-13 42 -20 50 -7 8 -41 69 -75 135 -35 66 -69 127 -76 136 -8 8 -14 29 -14 45
0 22 -8 36 -30 52 -20 15 -30 31 -30 48 0 15 -15 43 -35 67 -19 22 -35 51 -35
64 0 18 -9 28 -35 39 -19 7 -39 14 -45 14 -13 0 -13 -37 0 -45 6 -3 10 -16 10
-29 0 -12 4 -26 9 -31 6 -6 35 -59 67 -120 61 -119 102 -197 138 -260 39 -72
54 -100 60 -115 4 -8 22 -42 40 -75 35 -61 74 -133 93 -170 5 -11 17 -33 26
-50 55 -103 77 -149 77 -161 0 -20 46 -47 69 -39 11 3 32 34 51 73 80 167 176
349 196 373 8 8 14 21 14 28 0 7 14 33 30 58 16 24 30 52 30 62 0 10 6 24 14
30 8 6 24 33 35 59 12 26 42 83 66 127 59 105 115 221 115 236 0 15 19 78 31
101 5 10 9 31 9 46 0 16 10 45 23 64 13 18 29 49 35 66 6 18 20 45 32 59 11
14 20 38 20 53 0 37 20 51 75 55 40 2 48 0 55 -19 5 -13 3 -34 -6 -54 -8 -21
-10 -40 -5 -50 4 -10 8 -71 9 -137 2 -274 23 -673 37 -695 2 -3 9 -51 14 -106
6 -54 15 -137 21 -184 5 -47 7 -92 5 -101 -3 -9 -26 -24 -51 -34 l-46 -18 -24
28 c-23 28 -24 32 -24 219 0 105 -5 218 -10 252 -5 33 -12 121 -14 195 -3 75
-9 146 -15 160 -5 14 -12 51 -16 82 -8 63 -28 76 -46 30 -13 -32 -6 -260 10
-338 13 -63 21 -582 10 -613 -8 -20 -15 -22 -82 -22 -73 0 -171 -22 -182 -40
-4 -6 -3 -19 0 -30 5 -16 15 -20 55 -20 27 0 51 4 54 9 10 16 83 21 314 22
194 0 236 -2 262 -16 18 -9 48 -15 73 -13 37 3 42 6 45 30 3 22 -2 28 -35 39
-41 15 -45 15 -115 18 -42 1 -48 4 -67 37 -15 25 -21 52 -21 93 0 32 -6 96
-14 142 -8 46 -17 141 -20 210 -3 69 -9 137 -14 150 -5 13 -12 123 -16 243 -4
121 -9 223 -12 227 -2 4 -7 71 -10 148 -7 196 -9 193 145 191 64 -1 121 -2
128 -1 18 1 34 37 27 56 -6 15 -21 16 -138 10 -72 -4 -186 -7 -254 -7 l-123 0
-14 -29 c-8 -15 -15 -33 -15 -40 0 -16 -208 -429 -222 -439 -4 -3 -12 -17 -17
-30 -6 -14 -15 -32 -20 -40 -8 -14 -16 -31 -55 -105 -8 -16 -18 -37 -21 -45
-4 -8 -22 -42 -40 -75 -19 -33 -51 -94 -72 -135 -20 -41 -48 -92 -61 -113 -12
-20 -29 -61 -36 -90 -8 -33 -19 -53 -29 -55 -18 -4 -66 44 -67 65 0 12 -38 86
-79 153 -11 19 -32 58 -46 85 -13 28 -28 57 -33 65 -18 30 -42 76 -68 125 -14
28 -38 73 -54 100 -16 28 -40 73 -55 100 -14 28 -29 57 -34 65 -5 8 -12 22
-15 30 -4 8 -28 56 -56 105 -27 50 -61 115 -75 145 -15 30 -30 63 -36 72 -5
10 -9 24 -9 31 0 8 -9 22 -21 33 -18 17 -38 19 -153 20 -72 0 -184 4 -248 8
-102 7 -119 6 -124 -7z"/>
<path d="M5065 1853 c-39 -3 -61 -13 -103 -44 -29 -22 -66 -45 -82 -50 -32
-12 -45 -35 -30 -54 13 -15 60 -5 125 26 22 11 56 24 75 29 54 13 103 33 134
53 22 15 25 21 15 33 -11 14 -28 15 -134 7z"/>
<path d="M960 1690 c0 -11 7 -20 15 -20 17 0 18 2 9 24 -9 23 -24 20 -24 -4z"/>
<path d="M4731 1646 c-27 -32 -6 -46 71 -46 40 0 80 -5 88 -10 20 -12 28 -126
29 -411 1 -309 -8 -497 -26 -515 -9 -9 -36 -14 -74 -14 -33 0 -69 -5 -80 -10
-20 -11 -26 -45 -9 -55 5 -3 69 0 141 6 103 10 161 10 263 0 132 -12 166 -9
166 14 0 29 -36 45 -103 45 -57 0 -68 3 -78 21 -32 60 -38 791 -7 884 l13 40
65 3 c91 3 110 9 110 32 0 29 -39 34 -156 20 -99 -12 -257 -10 -359 6 -31 5
-44 2 -54 -10z m284 -90 c15 -22 15 -27 1 -54 -12 -24 -13 -37 -5 -61 8 -24 7
-37 -5 -62 -9 -17 -13 -35 -10 -40 3 -5 7 -116 9 -247 2 -130 7 -262 10 -292
3 -30 6 -66 6 -79 1 -26 -24 -57 -39 -47 -6 3 -8 159 -7 408 2 222 -1 413 -6
425 -9 25 4 73 21 73 5 0 17 -11 25 -24z"/>
<path d="M5711 1643 c-5 -11 -13 -51 -17 -89 -4 -38 -13 -86 -20 -107 -15 -43
-8 -51 42 -45 25 3 29 9 39 58 20 98 32 114 95 122 71 10 432 0 444 -12 13
-13 0 -53 -27 -82 -13 -14 -35 -43 -48 -64 -27 -45 -150 -216 -207 -289 -22
-27 -56 -75 -77 -105 -21 -30 -71 -99 -112 -153 -40 -54 -73 -101 -73 -105 0
-4 -20 -27 -45 -52 -51 -51 -77 -91 -67 -106 4 -6 67 -11 157 -11 83 0 278 -1
433 -3 180 -1 288 2 294 8 5 5 14 36 18 68 5 33 13 77 19 99 19 72 15 85 -23
85 -30 0 -35 -4 -50 -43 -9 -23 -16 -51 -16 -61 0 -10 -9 -34 -21 -52 -17 -28
-27 -34 -54 -34 -19 0 -44 -4 -57 -9 -29 -10 -374 6 -406 19 -29 13 -22 43 17
80 15 14 37 43 51 65 13 22 26 42 29 45 4 3 26 34 50 70 24 36 54 76 66 90 13
14 24 30 26 36 2 6 14 24 27 40 54 69 152 204 152 210 0 3 12 21 28 39 15 18
38 47 52 65 14 18 49 62 78 99 54 69 78 108 71 115 -3 3 -178 7 -389 10 -212
3 -404 8 -427 12 -35 5 -43 3 -52 -13z m709 -102 c-1 -12 -25 -48 -52 -77 -15
-16 -41 -45 -57 -64 -16 -19 -32 -32 -36 -28 -9 9 19 59 49 87 14 14 26 33 26
43 0 25 36 59 55 52 8 -4 15 -9 15 -13z m-165 -208 c-8 -34 -34 -65 -47 -57
-5 3 0 16 11 28 12 12 21 30 21 39 0 9 5 17 11 17 7 0 9 -10 4 -27z m-155
-232 c0 -13 -29 -35 -37 -28 -7 8 15 37 28 37 5 0 9 -4 9 -9z m-75 -100 c-3
-12 -13 -21 -21 -21 -9 0 -12 5 -8 13 23 40 41 46 29 8z m-55 -70 c-10 -20
-30 -29 -30 -14 0 10 33 44 37 39 3 -2 0 -14 -7 -25z m-49 -84 c-10 -30 -27
-47 -47 -47 -13 0 -1 33 22 60 32 37 40 33 25 -13z m-73 -103 c-4 -37 -32 -54
-54 -32 -15 15 -15 17 5 37 30 30 53 28 49 -5z"/>
<path d="M3786 1632 c-5 -8 -18 -43 -56 -152 -12 -36 -28 -72 -35 -80 -7 -8
-20 -37 -30 -65 -10 -27 -31 -78 -46 -113 -16 -34 -29 -66 -29 -72 0 -5 -6
-24 -14 -42 -8 -18 -22 -53 -31 -78 -21 -54 -43 -106 -62 -142 -7 -14 -13 -31
-13 -37 0 -20 -71 -162 -90 -181 -16 -16 -34 -20 -80 -20 l-60 0 0 -30 c0 -29
1 -30 49 -30 27 0 71 5 98 11 36 8 74 7 153 -3 129 -17 140 -15 140 22 l0 29
-78 -1 c-44 -1 -84 2 -90 6 -14 8 -16 62 -3 70 4 3 18 34 31 68 12 35 31 83
42 106 20 43 21 44 57 37 46 -8 263 -8 318 1 38 5 43 4 56 -23 35 -68 88 -216
85 -236 -3 -20 -10 -22 -93 -27 -88 -5 -90 -6 -90 -30 0 -23 4 -25 45 -28 25
-1 86 4 135 11 68 10 110 11 170 4 44 -6 103 -11 130 -11 47 -1 50 1 50 24 0
14 -6 26 -15 27 -8 1 -37 5 -63 8 -40 5 -50 11 -58 33 -6 15 -16 34 -23 42 -7
8 -19 31 -26 50 -7 19 -19 42 -25 50 -10 13 -35 69 -94 215 -5 11 -23 48 -40
83 -17 34 -31 67 -31 74 0 6 -14 41 -31 77 -16 36 -36 80 -43 96 -7 17 -20 46
-28 65 -9 19 -31 72 -50 117 l-33 83 -47 0 c-26 0 -49 -4 -52 -8z m83 -173 c7
-35 20 -67 32 -77 21 -18 25 -37 9 -47 -5 -3 -18 12 -30 35 -11 22 -28 40 -37
40 -23 0 -11 -80 21 -145 14 -27 26 -55 26 -62 0 -6 16 -43 36 -82 20 -39 37
-86 38 -104 l1 -32 -167 -2 -168 -2 0 25 c0 14 11 49 24 77 33 71 86 207 86
221 0 26 41 95 60 101 16 5 20 15 20 54 0 26 3 51 7 54 17 18 30 2 42 -54z
m315 -706 c8 -19 -8 -38 -23 -29 -16 10 -13 46 3 46 8 0 17 -8 20 -17z"/>
<path d="M6968 1349 c-10 -10 -18 -30 -18 -44 0 -16 -6 -25 -16 -25 -14 0 -16
-13 -13 -92 4 -92 4 -93 -20 -96 -15 -3 -30 3 -40 16 -21 26 -75 36 -91 17
-14 -17 -5 -51 15 -59 8 -3 15 -15 15 -26 0 -11 7 -23 15 -26 8 -4 15 -17 15
-30 0 -14 7 -27 15 -30 12 -5 15 -25 15 -95 0 -72 3 -89 15 -89 9 0 15 -9 15
-23 0 -13 18 -39 45 -66 25 -24 45 -47 45 -52 0 -5 24 -9 53 -9 48 0 56 3 90
38 20 21 37 47 37 59 0 11 7 23 15 27 8 3 15 16 15 30 0 13 7 26 15 30 12 4
15 24 15 90 0 65 3 85 15 90 8 3 15 14 15 25 0 11 6 24 14 28 8 4 16 26 18 48
3 35 0 40 -20 43 -15 2 -32 -5 -44 -18 -11 -12 -29 -20 -41 -18 -21 3 -22 8
-19 75 3 60 1 74 -12 79 -9 4 -16 18 -16 34 0 16 -7 30 -15 34 -8 3 -15 17
-15 31 0 24 -2 25 -57 24 -44 0 -62 -5 -75 -20z m92 -187 c7 -26 21 -56 31
-67 36 -40 49 -99 40 -180 -10 -83 -31 -125 -62 -125 -15 0 -19 -5 -15 -15 7
-20 -3 -45 -18 -45 -7 0 -25 13 -40 29 -24 25 -29 40 -33 98 -3 37 -11 82 -19
100 -25 55 -18 86 26 122 34 27 40 38 40 69 0 93 27 101 50 14z"/>
<path d="M2400 791 c0 -12 5 -21 10 -21 6 0 10 6 10 14 0 8 -4 18 -10 21 -5 3
-10 -3 -10 -14z"/>
</g>
</svg>
